<?xml version="1.0" encoding="UTF-8" standalone="no"?>
<svg
   id="组_1"
   data-name="组 1"
   width="2006.3574"
   height="166.33791"
   viewBox="0 0 37855.799 3138.451"
   version="1.1"
   sodipodi:docname="logo_text2.svg"
   inkscape:version="1.2.2 (732a01da63, 2022-12-09)"
   inkscape:export-filename="logo_text2.pdf"
   inkscape:export-xdpi="96"
   inkscape:export-ydpi="96"
   xmlns:inkscape="http://www.inkscape.org/namespaces/inkscape"
   xmlns:sodipodi="http://sodipodi.sourceforge.net/DTD/sodipodi-0.dtd"
   xmlns="http://www.w3.org/2000/svg"
   xmlns:svg="http://www.w3.org/2000/svg"
   xmlns:rdf="http://www.w3.org/1999/02/22-rdf-syntax-ns#"
   xmlns:x="adobe:ns:meta/">
  <sodipodi:namedview
     id="namedview16"
     pagecolor="#ffffff"
     bordercolor="#000000"
     borderopacity="0.25"
     inkscape:showpageshadow="2"
     inkscape:pageopacity="0.0"
     inkscape:pagecheckerboard="0"
     inkscape:deskcolor="#d1d1d1"
     showgrid="false"
     inkscape:zoom="0.60129311"
     inkscape:cx="996.18637"
     inkscape:cy="83.985662"
     inkscape:window-width="2560"
     inkscape:window-height="1369"
     inkscape:window-x="-8"
     inkscape:window-y="-8"
     inkscape:window-maximized="1"
     inkscape:current-layer="组_1" />
  <metadata
     id="metadata2">
<?xpacket begin="﻿" id="W5M0MpCehiHzreSzNTczkc9d"?>    <x:xmpmeta
       x:xmptk="Adobe XMP Core 5.6-c142 79.160924, 2017/07/13-01:06:39        ">
      <rdf:RDF>
        <rdf:Description
           rdf:about="" />
      </rdf:RDF>
    </x:xmpmeta>
<?xpacket end="w"?>  </metadata>
  <defs
     id="defs6">
    <style
       id="style4">
      .cls-1 {
        fill: #0c4028;
      }

      .cls-1, .cls-2, .cls-3, .cls-4 {
        fill-rule: evenodd;
      }

      .cls-2 {
        fill: #adbb9f;
      }

      .cls-3 {
        fill: #fff;
      }

      .cls-4 {
        fill: #9a3f1c;
      }
    </style>
  </defs>
  <path
     id="ModɑlityDɑnce_Reseɑrch"
     data-name="ModɑlityDɑnce Reseɑrch"
     class="cls-1"
     d="m 6264.56,2564.41 v -1043.7 q 0,-102.99 -3.44,-252 -3.42,-148.995 -7.54,-300.061 53.55,164.807 102.31,313.8 48.75,149.01 80.33,238.26 l 392.77,1043.7 h 296.62 l 390.02,-1043.7 q 32.94,-93.375 82.4,-250.61 49.44,-157.245 104.36,-330.295 -4.125,156.563 -8.23,314.5 -4.125,157.935 -4.13,266.41 v 1043.7 h 357.06 V 518.211 H 7522.5 L 7131.11,1593.49 q -28.845,85.17 -72.11,221.8 -43.265,136.63 -78.95,256.11 -35.715,-119.46 -79.66,-256.11 -43.935,-136.635 -72.78,-221.8 L 6429.36,518.211 H 5907.5 v 2046.2 h 357.06 z m 3129.04,-62.48 q 161.34,-95.445 251.32,-265.72 89.94,-170.3 89.95,-395.51 0.01,-225.21 -89.95,-396.19 -89.955,-170.985 -251.32,-267.11 -161.37,-96.15 -374.22,-96.14 -214.23,0 -374.9,96.14 -160.695,96.135 -250.63,267.11 -89.955,170.97 -89.95,396.19 0.01,225.22 89.95,395.51 89.955,170.295 250.63,265.72 160.675,95.425 374.9,95.44 212.865,0 374.22,-95.44 z m -640.64,-319.3 q -98.88,-124.965 -98.87,-341.93 0,-218.355 98.87,-344.02 98.87,-125.665 266.42,-125.66 166.185,0 265.05,126.35 98.85,126.345 98.88,343.33 0,216.975 -98.88,341.93 -98.88,124.98 -265.05,124.97 -167.55,0 -266.42,-124.97 z m 2037.24,348.83 q 114.75,-61.785 183.4,-188.14 h 2.7 v 221.09 h 340.6 V 518.211 h -346.1 v 802 h -2.7 q -70.05,-119.46 -182.7,-177.14 -112.5,-57.675 -254,-57.69 -185.4,0 -326.9,95.46 -141.45,95.43 -219.7,265.04 -78.3,169.605 -78.3,392.07 0,226.59 77.6,396.2 77.55,169.59 219.1,264.36 141.45,94.755 330.9,94.75 141.45,-10e-4 256.1,-61.801 z m -434.6,-348.12 q -98.85,-120.165 -98.9,-345.39 0,-223.83 98.9,-344.69 98.85,-120.84 259.6,-120.86 170.25,0 272.5,127.03 102.3,127.035 102.4,338.52 0,211.5 -102.4,338.51 -102.3,127.035 -272.5,127.03 -160.8,0 -259.6,-120.15 z m 2084.7,348.12 q 113.85,-61.785 182.6,-185.41 h 4.1 v 218.36 h 339.2 V 1114.21 H 12627 v 201.88 h -5.5 q -67.2,-115.335 -182.6,-173.02 -115.35,-57.675 -256.8,-57.69 -185.4,0 -326.9,95.46 -141.45,95.43 -219.7,265.04 -78.3,169.605 -78.3,392.07 0,226.59 77.6,396.2 77.55,169.59 219.1,264.36 141.3,94.755 330.9,94.75 141.45,0 255.5,-61.8 z m -434,-348.12 q -98.85,-120.165 -98.9,-345.39 0,-223.83 98.9,-344.69 98.85,-120.84 259.6,-120.86 170.25,0 272.5,127.03 102.3,127.035 102.4,338.52 0,211.5 -102.4,338.51 -102.3,127.035 -272.5,127.03 -160.8,0 -259.6,-120.15 z M 13273.8,518.211 v 2046.2 h 346.1 v -2046.2 z m 999.8,2046.2 V 1114.21 h -346.1 v 1450.2 h 346.1 z m -26.2,-1722.777 q 58.95,-57 59,-140.782 0,-83.764 -59,-140.062 -59.1,-56.3 -147,-56.312 -89.25,0 -148.3,56.312 -59.1,56.3 -59.1,140.062 0,83.79 59.1,140.782 59.1,56.992 148.3,56.984 87.9,-0.001 147,-56.985 z m 803.5,272.577 v -395.5 h -347.5 v 395.5 h -252.7 v 278.78 h 252.7 v 806.13 q 0,186.765 106.5,276.03 106.35,89.265 327.5,89.26 h 208.7 V 2285.63 h -148.3 q -83.7,0 -115.3,-29.51 -31.65,-29.535 -31.6,-107.81 v -755.32 h 295.2 v -278.78 h -295.2 z m 766.3,2024.24 q 310.35,0 439.4,-335.08 l 648.2,-1689.16 h -362.5 l -265.1,755.31 q -54.9,162.06 -104.3,321.36 -24.75,-79.635 -50.9,-159.98 -26.1,-80.34 -53.5,-161.38 l -266.4,-755.31 h -366.7 l 558.9,1441.97 -53.5,140.08 q -30.3,85.125 -69.4,122.9 -39.15,37.77 -109.2,37.77 h -171.6 v 281.52 z m 2511,-698.32 q 224.55,-124.26 344,-354.31 119.55,-230.01 119.5,-547.25 0,-314.49 -119.5,-543.14 -119.4,-228.655 -340.5,-352.937 -221.1,-124.266 -526,-124.282 h -705.9 v 2046.2 h 690.8 q 313.05,0 537.6,-124.282 z m -865.8,-1611.56 h 320 q 324,0 483.3,186.089 159.3,186.105 159.4,523.91 0,340.59 -160,528.03 -160.05,187.455 -493.7,187.45 h -309 z m 2397.7,1702.889 q 114,-61.785 182.7,-185.41 h 4.1 v 218.36 h 339.2 v -1450.2 h -339.2 v 201.88 h -5.5 q -67.2,-115.335 -182.6,-173.02 -115.35,-57.675 -256.8,-57.69 -185.4,0 -326.9,95.46 -141.45,95.43 -219.7,265.04 -78.3,169.605 -78.3,392.07 0,226.59 77.6,396.2 77.55,169.59 219,264.36 141.45,94.755 331,94.75 141.45,0 255.4,-61.8 z m -433.9,-348.12 q -98.85,-120.165 -98.9,-345.39 0,-223.83 98.9,-344.69 98.85,-120.84 259.5,-120.86 170.4,0 272.6,127.03 102.3,127.035 102.3,338.52 0,211.485 -102.3,338.51 -102.3,127.035 -272.6,127.03 -160.65,0 -259.5,-120.15 z m 1704.2,-709.32 q 90.75,-85.125 226.6,-85.14 138.75,0 215.6,82.39 76.95,82.41 76.9,241.71 v 851.43 h 347.5 v -906.37 q 0,-278.76 -144.9,-425.72 -144.9,-146.925 -372.8,-146.94 -294,0 -445,251.32 v -222.49 h -340.6 v 1450.2 h 346.1 v -819.86 q 0,-185.385 90.6,-270.53 z m 2143,1051.25 q 143.55,-72.09 230.8,-197.06 87.15,-124.965 99.5,-284.28 h -341.9 q -24.75,120.87 -100.3,192.95 -75.45,72.1 -211.5,72.1 -170.25,0 -266.4,-127.02 -96.15,-127.02 -96.1,-341.26 0,-215.61 96.1,-343.33 96.15,-127.71 266.4,-127.72 134.7,0 215,73.47 80.25,73.47 99.5,190.2 h 339.2 q -15,-162.045 -102.3,-286.33 -87.15,-124.26 -230,-195 -142.8,-70.725 -325.5,-70.73 -211.5,0 -371.5,96.83 -159.9,96.81 -248.5,267.78 -88.65,170.97 -88.6,394.83 0,223.845 88.6,394.14 88.5,170.295 248.5,266.4 160.05,96.12 371.5,96.13 184.05,0 327.5,-72.1 z m 1512.7,10.99 q 140.1,-61.11 232.8,-169.6 92.7,-108.49 120.2,-249.93 H 24815 q -30.3,93.375 -115.4,150.37 -85.05,57 -215.6,56.99 -174.45,0 -271.9,-108.49 -97.5,-108.495 -104.4,-285.64 h 1049.2 v -94.76 q 0,-222.48 -86.5,-392.07 -86.55,-169.59 -243.1,-265.73 -156.45,-96.15 -365.3,-96.14 -203.25,0 -359.8,98.19 -156.45,98.19 -245.1,269.17 -88.65,170.98 -88.6,392.08 0,219.72 85.9,390.7 85.8,170.97 245.1,268.47 159.3,97.5 376.3,97.5 170.25,0 310.3,-61.11 z m -563.7,-1090.39 q 94.05,-89.955 245.1,-89.96 149.7,0 245.2,89.96 95.4,89.955 111.9,245.14 h -714.1 q 17.85,-155.19 111.9,-245.14 z m 2184.2,1118.54 v -744.32 h 421.6 l 384.5,744.32 h 399.7 l -427.1,-810.23 q 182.55,-74.16 285.6,-223.86 103.05,-149.67 103,-358.42 0,-200.49 -89.2,-347.439 -89.4,-146.954 -253.4,-226.594 -164.1,-79.639 -389.3,-79.656 h -797.9 v 2046.2 h 362.5 z m 0,-1738.59 h 414.8 q 182.55,0 289,93.391 106.5,93.4 106.5,252.689 0,160.68 -105.8,254.75 -105.75,94.08 -287,94.06 h -417.5 z m 2382.7,1710.44 q 140.1,-61.11 232.7,-169.6 92.7,-108.48 120.2,-249.93 h -324.1 q -30.15,93.375 -115.3,150.37 -85.2,57 -215.6,56.99 -174.45,0 -271.9,-108.49 -97.5,-108.495 -104.4,-285.64 h 1049.2 v -94.76 q 0,-222.48 -86.6,-392.07 -86.4,-169.59 -243,-265.73 -156.6,-96.14 -365.3,-96.14 -203.25,0 -359.8,98.19 -156.6,98.19 -245.2,269.17 -88.5,170.97 -88.5,392.08 0,219.72 85.8,390.7 85.8,170.98 245.1,268.47 159.3,97.5 376.3,97.5 170.25,0 310.4,-61.11 z m -563.8,-1090.39 q 94.2,-89.955 245.2,-89.96 149.7,0 245.1,89.96 95.4,89.96 111.9,245.14 h -714.1 q 17.85,-155.19 111.9,-245.14 z m 2056.6,1096.58 q 138.6,-56.31 217.6,-159.99 78.9,-103.68 79,-245.14 0,-159.285 -102.3,-256.8 -102.3,-97.5 -317.9,-142.82 l -261,-53.57 q -90.6,-20.58 -141.4,-61.11 -50.85,-40.5 -50.8,-105.06 0,-74.16 65.9,-124.97 65.85,-50.805 179.9,-50.81 118.05,0 190.9,63.17 72.75,63.2 75.5,160.69 h 325.5 q -5.55,-223.86 -171,-353.63 -165.45,-129.77 -429.2,-129.78 -265.05,0 -424.3,122.91 -159.3,122.91 -159.3,323.41 0,330.975 423,418.86 l 247.2,50.81 q 90.6,19.245 144.1,59.06 53.7,39.825 53.6,105.73 0,76.935 -72.1,126.35 -72,49.455 -197,49.44 -130.5,0 -204.7,-58.36 -74.1,-58.365 -85.1,-164.11 h -342 q 16.5,233.46 194.4,357.73 177.75,124.29 442.8,124.28 180,0 318.7,-56.29 z m 1483.1,-6.19 q 140.1,-61.11 232.8,-169.6 92.7,-108.49 120.1,-249.93 H 31794 q -30.15,93.375 -115.3,150.37 -85.2,57 -215.6,56.99 -174.45,0 -271.9,-108.49 -97.5,-108.495 -104.4,-285.64 H 32136 v -94.76 q 0,-222.48 -86.5,-392.07 -86.55,-169.59 -243.1,-265.73 -156.6,-96.15 -365.3,-96.14 -203.25,0 -359.8,98.19 -156.6,98.19 -245.1,269.17 -88.65,170.97 -88.6,392.08 0,219.72 85.8,390.7 85.8,170.98 245.1,268.47 159.3,97.5 376.3,97.5 170.4,0 310.4,-61.11 z m -563.7,-1090.39 q 94.05,-89.955 245.1,-89.96 149.7,0 245.1,89.96 95.55,89.955 112,245.14 h -714.2 q 17.85,-155.19 112,-245.14 z m 1985.1,1085.59 q 113.85,-61.785 182.6,-185.41 h 4.1 v 218.36 h 339.2 v -1450.2 h -339.2 v 201.88 h -5.5 q -67.2,-115.335 -182.6,-173.02 -115.35,-57.675 -256.8,-57.69 -185.4,0 -326.9,95.46 -141.45,95.43 -219.7,265.04 -78.3,169.605 -78.3,392.07 0,226.59 77.6,396.2 77.55,169.59 219.1,264.36 141.45,94.755 330.9,94.75 141.45,0 255.5,-61.8 z m -434,-348.12 q -98.85,-120.165 -98.9,-345.39 0,-223.83 98.9,-344.69 98.85,-120.84 259.6,-120.86 170.25,0 272.6,127.03 102.3,127.035 102.3,338.52 0,211.485 -102.3,338.51 -102.45,127.035 -272.6,127.03 -160.8,0 -259.6,-120.15 z m 1613.6,381.07 v -821.23 q 0,-170.28 84.5,-255.42 84.45,-85.125 208,-85.14 50.85,0 97.5,4.12 c 31.2,2.75 53.1,5.03 66,6.86 v -307.62 c -13.8,-0.91 -30,-2.05 -48.8,-3.43 -18.8,-1.38 -40.1,-2.06 -63.9,-2.06 q -139.95,0 -225.9,65.24 -85.8,65.22 -125.6,188.81 h -4.1 v -240.33 h -333.7 v 1450.2 z m 1623.9,-39.14 q 143.55,-72.09 230.7,-197.06 87.3,-124.965 99.6,-284.28 h -341.9 q -24.75,120.87 -100.3,192.95 -75.45,72.1 -211.5,72.1 -170.25,0 -266.4,-127.02 -96.15,-127.02 -96.1,-341.26 0,-215.61 96.1,-343.33 96.15,-127.71 266.4,-127.72 134.55,0 214.9,73.47 80.4,73.47 99.6,190.2 h 339.2 q -15.15,-162.045 -102.3,-286.33 -87.15,-124.26 -230,-195 -142.95,-70.725 -325.5,-70.73 -211.5,0 -371.5,96.83 -159.9,96.81 -248.5,267.78 -88.65,170.97 -88.6,394.83 0,223.845 88.6,394.14 88.5,170.295 248.5,266.4 160.05,96.12 371.5,96.13 184.05,0 327.5,-72.1 z m 999.1,-1051.25 q 90.6,-85.125 226.6,-85.14 138.75,0 215.6,82.39 76.95,82.41 76.9,241.71 v 851.43 h 347.5 v -906.37 q 0,-278.76 -144.9,-425.72 -144.9,-146.92 -372.9,-146.94 -288.3,0 -439.4,241.71 V 518.211 h -346.1 v 2046.2 h 346.1 V 1744.55 q 0,-185.385 90.6,-270.53 z" />
  <path
     id="三角形_1"
     data-name="三角形 1"
     class="cls-2"
     d="M 1245.49,0 2491,2573 H 0 Z" />
  <path
     id="三角形_1_拷贝"
     data-name="三角形 1 拷贝"
     class="cls-1"
     d="M 3736.5,0 4982,2573 H 2491 Z" />
  <g
     id="组_3"
     data-name="组 3"
     transform="translate(-238)">
    <path
       id="D"
       class="cls-3"
       d="m 4854.85,1872.89 q 150.975,-87.165 241.32,-170.42 90.33,-83.25 122.17,-161.96 31.84,-78.71 13.17,-173.02 -18.675,-94.32 -108.61,-202.83 -89.955,-108.51 -263.7,-215.892 -203.91,-126.033 -427.85,-186.4 -223.94,-60.367 -457.57,-47.384 -180.075,9.477 -353.28,73.395 -124.005,45.5 -318.13,157.565 l -573.23,330.966 1525.23,942.68 z m -1725.51,-611.88 349.63,-201.87 q 196.35,-113.37 316.12,-145.2 166.3,-43.77 380.48,-13.842 214.18,29.928 453.48,177.823 172.725,106.74 250.21,206.89 77.52,100.14 70.97,189.73 -4.635,63.63 -70.2,135.06 -65.55,71.445 -230.13,166.46 L 4294.6,1981.2 Z" />
    <path
       id="D-2"
       data-name="D"
       class="cls-4"
       d="m 4854.85,1767.91 q 150.975,-87.18 241.32,-170.42 90.33,-83.25 122.17,-161.96 31.84,-78.71 13.17,-173.02 -18.675,-94.32 -108.61,-202.83 Q 5032.945,951.168 4859.2,843.786 4655.29,717.752 4431.35,657.386 4207.41,597.02 3973.78,610 q -180.075,9.477 -353.28,73.395 -124.005,45.5 -318.13,157.564 l -573.23,330.971 1525.23,942.68 z M 3129.34,1156.03 3478.97,954.16 q 196.35,-113.373 316.12,-145.2 166.3,-43.769 380.48,-13.842 214.18,29.927 453.48,177.821 172.725,106.747 250.21,206.9 77.52,100.14 70.97,189.72 -4.635,63.63 -70.2,135.07 -65.55,71.445 -230.13,166.46 l -355.3,205.14 z" />
  </g>
  <path
     id="形状_1"
     data-name="形状 1"
     class="cls-1"
     d="M 3738.99,6 3196,1128 l 1092,21" />
</svg>
